# xmcd
#
# Track frame offsets:
#	150
#	12253
#	22895
#	36098
#	53875
#	66198
#	79878
#	94518
#	105278
#	118378
#	131858
#	146780
#	163208
#	176173
#
# Disc length: 2518
#
# Revision: 2
# Processed by: cddbd v1.5.1PL0 Copyright (c) Steve Scherf et al.
# Submitted via: ExactAudioCopy v0.95a3
# Normalized: r1:DSETVAR1,TDELIM( - )
#
DISCID=c109d40e
DTITLE=Various Artist - Black, White and Blues
DYEAR=1991
DGENRE=Blues
TTITLE0=Howlin' Wolf - How many more tears
TTITLE1=Eric Clapton - West Coast Idea
TTITLE2=Lowell Fulson - Pay Day Blues
TTITLE3=John Mayall - Telephone Blues
TTITLE4=John Lee Hooker - High Priced Woman
TTITLE5=Savoy Brown Blues Band - I Tried
TTITLE6=Muddy Waters - Still A Fool
TTITLE7=Jeff Beck and The All Stars - Chuckles
TTITLE8=Little Walter - Mean Old World
TTITLE9=Nicky Hopkins and The All Stars - Piano Shuffle
TTITLE10=Mephis Slim - I'm Crying
TTITLE11=Rod Steward - Little Misunderstood
TTITLE12=Little Milton - Baby I Love You
TTITLE13=Eric Clapton and Jimmy Page - Freight Loader
EXTD=
EXTT0=
EXTT1=
EXTT2=
EXTT3=
EXTT4=
EXTT5=
EXTT6=
EXTT7=
EXTT8=
EXTT9=
EXTT10=
EXTT11=
EXTT12=
EXTT13=
PLAYORDER=
